<svg width="220" height="51" viewBox="0 0 220 51" fill="none" xmlns="http://www.w3.org/2000/svg">
<path d="M78.0856 24.096C78.0856 34.032 74.1602 39 66.3096 39H56.8336V10.434H66.4936C70.6949 10.434 73.6696 11.6147 75.4176 13.976C77.1962 16.3067 78.0856 19.68 78.0856 24.096ZM66.1716 32.376C67.7969 32.376 68.8396 31.8087 69.2996 30.674C69.7902 29.5087 70.0356 27.5767 70.0356 24.878C70.0356 22.1487 69.7749 20.2167 69.2536 19.082C68.7629 17.9473 67.6896 17.38 66.0336 17.38H64.6536V32.376H66.1716ZM91.2124 22.992C90.4151 22.992 89.8938 23.268 89.6484 23.82C89.4031 24.3413 89.2804 25.154 89.2804 26.258H93.2824V25.154C93.2824 23.7127 92.5924 22.992 91.2124 22.992ZM91.3964 16.414C94.5551 16.414 96.8091 17.1807 98.1584 18.714C99.5384 20.2167 100.228 22.3787 100.228 25.2C100.228 25.568 100.121 27.224 99.9064 30.168H89.4184C89.4184 32.468 90.4764 33.618 92.5924 33.618C93.6044 33.618 95.5824 33.2653 98.5264 32.56L99.1704 38.264C96.5944 39.0613 94.0184 39.46 91.4424 39.46C88.2838 39.46 85.8611 38.4327 84.1744 36.378C82.4878 34.2927 81.6444 31.4713 81.6444 27.914C81.6444 20.2473 84.8951 16.414 91.3964 16.414ZM122.878 16.966L118.186 39H107.33L102.592 16.966H110.688L112.666 31.088H113.264L115.38 16.966H122.878ZM131.361 39.46C127.711 39.46 125.887 37.436 125.887 33.388V16.966H133.707V31.502C133.707 32.2687 134.044 32.652 134.719 32.652C135.577 32.652 136.298 32.4373 136.881 32.008V16.966H144.609V38.908H137.295V37.298H137.111C135.424 38.7393 133.507 39.46 131.361 39.46ZM156.651 18.576C158.338 17.1347 160.193 16.414 162.217 16.414C164.241 16.414 165.652 16.8893 166.449 17.84C167.277 18.76 167.691 20.1553 167.691 22.026V39H159.871V24.648C159.871 23.8813 159.534 23.498 158.859 23.498C158.001 23.498 157.28 23.7127 156.697 24.142V39H148.969V16.966H156.007L156.467 18.576H156.651ZM179.826 39H172.236V17.196H179.826V39ZM172.834 15.448C172.19 14.896 171.868 14.0067 171.868 12.78C171.868 11.5533 172.19 10.6487 172.834 10.066C173.478 9.48333 174.536 9.192 176.008 9.192C177.48 9.192 178.538 9.48333 179.182 10.066C179.826 10.6487 180.148 11.5533 180.148 12.78C180.148 13.976 179.826 14.8653 179.182 15.448C178.538 16 177.48 16.276 176.008 16.276C174.536 16.276 173.478 16 172.834 15.448ZM196.773 39.046C194.504 39.322 192.526 39.46 190.839 39.46C189.183 39.46 187.88 39.0307 186.929 38.172C186.009 37.2827 185.549 35.7647 185.549 33.618V22.946H183.341V17.242H185.917L186.331 13.01H193.277V17.242H197.371L197.049 22.946H193.231V32.1C193.231 32.744 193.538 33.066 194.151 33.066C194.213 33.066 195.163 33.02 197.003 32.928L196.773 39.046ZM219.653 16.966L213.949 39.644C213.366 41.9133 212.508 43.4927 211.373 44.382C210.238 45.302 208.383 45.762 205.807 45.762H201.207L200.517 39.828H203.093C204.136 39.828 204.657 39.414 204.657 38.586C204.657 38.402 204.596 38.0033 204.473 37.39L199.183 16.966H207.371L209.441 30.72H209.855L212.109 16.966H219.653Z" fill="black"/>
<path d="M27.967 5.879C20.242 5.875 12.182 7.61501 4.04699 9.872C3.01399 10.08 2.00599 10.756 1.47299 11.592C0.982992 12.38 0.804992 13.171 0.651992 14C-0.138008 18.428 -0.0420081 22.776 0.121992 27.594C0.157992 28.697 0.321992 30.004 0.836992 30.799C1.37499 31.602 2.29699 32.112 3.39799 32.279C4.8046 32.4853 6.21561 32.6604 7.62999 32.804L7.31799 41.502C7.26999 42.194 7.60799 42.769 8.02799 43.1C8.40399 43.386 8.82299 43.513 9.25299 43.545C10.113 43.61 11.122 43.242 11.623 42.288C13.818 38.064 15.195 36.199 17.94 33.393C25.098 33.569 31.347 33.171 38.422 32.648C40.923 32.583 42.64 30.538 43.094 28.905C44.451 24.673 44.662 19.449 44.806 14.168C44.867 12.075 44.141 10.02 42.856 8.934C41.634 7.943 40.154 7.584 38.798 7.216C35.031 6.363 31.263 5.905 27.967 5.879ZM38.257 9.189C39.615 9.558 40.812 9.913 41.567 10.526C42.827 11.865 42.785 12.756 42.767 14.201C42.625 19.323 42.379 24.294 41.223 28.061C40.725 29.466 39.857 30.466 38.217 30.617C31.009 31.15 24.755 31.562 17.51 31.356C17.3689 31.3515 17.2284 31.376 17.0972 31.4279C16.9659 31.4799 16.8468 31.5582 16.747 31.658C13.703 34.732 12.146 36.868 9.82599 41.334C9.77199 41.436 9.65499 41.498 9.51099 41.509C9.41399 41.504 9.37499 41.429 9.36899 41.361L9.68299 31.929C9.70199 31.42 9.28199 30.934 8.77599 30.879C7.08411 30.7174 5.39684 30.5107 3.71599 30.259C2.98999 30.148 2.72199 29.949 2.52299 29.653C2.17699 28.828 2.18499 28.318 2.15799 27.525C1.99599 22.75 1.91599 18.577 2.64899 14.425C2.71699 13.811 2.94699 13.183 3.19099 12.658C3.59499 12.026 4.21399 11.933 4.83499 11.761C12.791 9.564 20.575 7.921 27.903 7.916C31.495 8.046 35.267 8.406 38.257 9.189V9.189ZM10.778 17.279C9.68199 18.592 9.79099 20.375 10.638 21.569C11.08 22.194 11.77 22.697 12.61 22.811C13.701 22.901 14.393 22.459 15.14 21.951C16.493 20.775 16.63 18.723 15.601 17.241C15.077 16.486 14.239 16.033 13.383 16.001C12.211 16.013 11.415 16.536 10.778 17.278V17.279ZM22.634 16.207C21.542 16.242 20.659 16.998 20.12 17.814C19.503 18.747 19.143 19.915 19.642 21.06C20.602 23.263 23.919 23.236 25.242 20.997C25.852 19.965 25.696 18.792 25.242 17.941C24.79 17.091 24.106 16.398 23.111 16.239C22.9534 16.2131 22.7937 16.2024 22.634 16.207V16.207ZM32.259 16.414C31.919 16.406 31.569 16.438 31.241 16.525C29.929 16.875 28.812 18.229 28.981 19.962C29.067 20.834 29.468 21.684 30.191 22.27C30.914 22.855 31.964 23.117 33.071 22.89C34.343 22.63 35.131 21.605 35.394 20.615C35.657 19.625 35.591 18.616 34.98 17.798C34.6621 17.3753 34.2517 17.0308 33.7803 16.7909C33.3089 16.5511 32.7889 16.4221 32.26 16.414H32.259ZM13.294 18.037C13.539 18.039 13.732 18.117 13.931 18.403C14.376 19.045 14.252 20.018 13.803 20.408C13.356 20.798 13.077 20.832 12.881 20.806C12.685 20.779 12.486 20.644 12.308 20.392C11.968 19.912 11.868 19.136 12.315 18.582C12.553 18.266 12.99 18.069 13.295 18.037H13.294ZM22.777 18.26C22.815 18.266 23.241 18.513 23.445 18.896C23.649 19.279 23.687 19.635 23.493 19.962C22.916 20.938 21.689 20.674 21.503 20.249C21.433 20.087 21.486 19.436 21.823 18.929C22.158 18.42 22.58 18.229 22.777 18.259V18.26ZM33.341 19.008C33.403 19.091 33.554 19.648 33.437 20.09C33.319 20.532 33.127 20.805 32.657 20.901C32.055 21.025 31.717 20.901 31.464 20.694C31.21 20.489 31.039 20.142 31.002 19.771C30.912 18.851 31.242 18.638 31.766 18.498C32.376 18.348 33.066 18.61 33.341 19.008V19.008Z" fill="#FF52C1"/>
</svg>
