<svg width="45" height="39" viewBox="0 0 45 39" fill="none" xmlns="http://www.w3.org/2000/svg">
<path d="M27.967 0.879005C20.242 0.875005 12.182 2.61501 4.04699 4.872C3.01399 5.08 2.00599 5.756 1.47299 6.592C0.982992 7.38 0.804992 8.171 0.651992 9C-0.138008 13.428 -0.0420081 17.776 0.121992 22.594C0.157992 23.697 0.321992 25.004 0.836992 25.799C1.37499 26.602 2.29699 27.112 3.39799 27.279C4.8046 27.4853 6.21561 27.6604 7.62999 27.804L7.31799 36.502C7.26999 37.194 7.60799 37.769 8.02799 38.1C8.40399 38.386 8.82299 38.513 9.25299 38.545C10.113 38.61 11.122 38.242 11.623 37.288C13.818 33.064 15.195 31.199 17.94 28.393C25.098 28.569 31.347 28.171 38.422 27.648C40.923 27.583 42.64 25.538 43.094 23.905C44.451 19.673 44.662 14.449 44.806 9.168C44.867 7.07501 44.141 5.02 42.856 3.934C41.634 2.943 40.154 2.584 38.798 2.216C35.031 1.363 31.263 0.905005 27.967 0.879005ZM38.257 4.189C39.615 4.558 40.812 4.913 41.567 5.526C42.827 6.865 42.785 7.756 42.767 9.201C42.625 14.323 42.379 19.294 41.223 23.061C40.725 24.466 39.857 25.466 38.217 25.617C31.009 26.15 24.755 26.562 17.51 26.356C17.3689 26.3515 17.2284 26.376 17.0972 26.4279C16.9659 26.4799 16.8468 26.5582 16.747 26.658C13.703 29.732 12.146 31.868 9.82599 36.334C9.77199 36.436 9.65499 36.498 9.51099 36.509C9.41399 36.504 9.37499 36.429 9.36899 36.361L9.68299 26.929C9.70199 26.42 9.28199 25.934 8.77599 25.879C7.08411 25.7174 5.39684 25.5107 3.71599 25.259C2.98999 25.148 2.72199 24.949 2.52299 24.653C2.17699 23.828 2.18499 23.318 2.15799 22.525C1.99599 17.75 1.91599 13.577 2.64899 9.425C2.71699 8.811 2.94699 8.183 3.19099 7.658C3.59499 7.026 4.21399 6.933 4.83499 6.761C12.791 4.564 20.575 2.921 27.903 2.916C31.495 3.046 35.267 3.406 38.257 4.189V4.189ZM10.778 12.279C9.68199 13.592 9.79099 15.375 10.638 16.569C11.08 17.194 11.77 17.697 12.61 17.811C13.701 17.901 14.393 17.459 15.14 16.951C16.493 15.775 16.63 13.723 15.601 12.241C15.077 11.486 14.239 11.033 13.383 11.001C12.211 11.013 11.415 11.536 10.778 12.278V12.279ZM22.634 11.207C21.542 11.242 20.659 11.998 20.12 12.814C19.503 13.747 19.143 14.915 19.642 16.06C20.602 18.263 23.919 18.236 25.242 15.997C25.852 14.965 25.696 13.792 25.242 12.941C24.79 12.091 24.106 11.398 23.111 11.239C22.9534 11.2131 22.7937 11.2024 22.634 11.207V11.207ZM32.259 11.414C31.919 11.406 31.569 11.438 31.241 11.525C29.929 11.875 28.812 13.229 28.981 14.962C29.067 15.834 29.468 16.684 30.191 17.27C30.914 17.855 31.964 18.117 33.071 17.89C34.343 17.63 35.131 16.605 35.394 15.615C35.657 14.625 35.591 13.616 34.98 12.798C34.6621 12.3753 34.2517 12.0308 33.7803 11.7909C33.3089 11.5511 32.7889 11.4221 32.26 11.414H32.259ZM13.294 13.037C13.539 13.039 13.732 13.117 13.931 13.403C14.376 14.045 14.252 15.018 13.803 15.408C13.356 15.798 13.077 15.832 12.881 15.806C12.685 15.779 12.486 15.644 12.308 15.392C11.968 14.912 11.868 14.136 12.315 13.582C12.553 13.266 12.99 13.069 13.295 13.037H13.294ZM22.777 13.26C22.815 13.266 23.241 13.513 23.445 13.896C23.649 14.279 23.687 14.635 23.493 14.962C22.916 15.938 21.689 15.674 21.503 15.249C21.433 15.087 21.486 14.436 21.823 13.929C22.158 13.42 22.58 13.229 22.777 13.259V13.26ZM33.341 14.008C33.403 14.091 33.554 14.648 33.437 15.09C33.319 15.532 33.127 15.805 32.657 15.901C32.055 16.025 31.717 15.901 31.464 15.694C31.21 15.489 31.039 15.142 31.002 14.771C30.912 13.851 31.242 13.638 31.766 13.498C32.376 13.348 33.066 13.61 33.341 14.008V14.008Z" fill="#FF52C1"/>
</svg>
