<svg width="220" height="51" viewBox="0 0 220 51" fill="none" xmlns="http://www.w3.org/2000/svg">
<path d="M78.0762 24.096C78.0762 34.032 74.1509 39 66.3002 39H56.8242V10.434H66.4842C70.6856 10.434 73.6602 11.6147 75.4082 13.976C77.1869 16.3067 78.0762 19.68 78.0762 24.096ZM66.1622 32.376C67.7876 32.376 68.8302 31.8087 69.2902 30.674C69.7809 29.5087 70.0262 27.5767 70.0262 24.878C70.0262 22.1487 69.7656 20.2167 69.2442 19.082C68.7536 17.9473 67.6802 17.38 66.0242 17.38H64.6442V32.376H66.1622ZM91.2031 22.992C90.4058 22.992 89.8845 23.268 89.6391 23.82C89.3938 24.3413 89.2711 25.154 89.2711 26.258H93.2731V25.154C93.2731 23.7127 92.5831 22.992 91.2031 22.992ZM91.3871 16.414C94.5458 16.414 96.7998 17.1807 98.1491 18.714C99.5291 20.2167 100.219 22.3787 100.219 25.2C100.219 25.568 100.112 27.224 99.8971 30.168H89.4091C89.4091 32.468 90.4671 33.618 92.5831 33.618C93.5951 33.618 95.5731 33.2653 98.5171 32.56L99.1611 38.264C96.5851 39.0613 94.0091 39.46 91.4331 39.46C88.2745 39.46 85.8518 38.4327 84.1651 36.378C82.4785 34.2927 81.6351 31.4713 81.6351 27.914C81.6351 20.2473 84.8858 16.414 91.3871 16.414ZM122.869 16.966L118.177 39H107.321L102.583 16.966H110.679L112.657 31.088H113.255L115.371 16.966H122.869ZM131.351 39.46C127.702 39.46 125.877 37.436 125.877 33.388V16.966H133.697V31.502C133.697 32.2687 134.035 32.652 134.709 32.652C135.568 32.652 136.289 32.4373 136.871 32.008V16.966H144.599V38.908H137.285V37.298H137.101C135.415 38.7393 133.498 39.46 131.351 39.46ZM156.642 18.576C158.329 17.1347 160.184 16.414 162.208 16.414C164.232 16.414 165.643 16.8893 166.44 17.84C167.268 18.76 167.682 20.1553 167.682 22.026V39H159.862V24.648C159.862 23.8813 159.525 23.498 158.85 23.498C157.991 23.498 157.271 23.7127 156.688 24.142V39H148.96V16.966H155.998L156.458 18.576H156.642ZM179.817 39H172.227V17.196H179.817V39ZM172.825 15.448C172.181 14.896 171.859 14.0067 171.859 12.78C171.859 11.5533 172.181 10.6487 172.825 10.066C173.469 9.48333 174.527 9.192 175.999 9.192C177.471 9.192 178.529 9.48333 179.173 10.066C179.817 10.6487 180.139 11.5533 180.139 12.78C180.139 13.976 179.817 14.8653 179.173 15.448C178.529 16 177.471 16.276 175.999 16.276C174.527 16.276 173.469 16 172.825 15.448ZM196.764 39.046C194.495 39.322 192.517 39.46 190.83 39.46C189.174 39.46 187.871 39.0307 186.92 38.172C186 37.2827 185.54 35.7647 185.54 33.618V22.946H183.332V17.242H185.908L186.322 13.01H193.268V17.242H197.362L197.04 22.946H193.222V32.1C193.222 32.744 193.529 33.066 194.142 33.066C194.203 33.066 195.154 33.02 196.994 32.928L196.764 39.046ZM219.644 16.966L213.94 39.644C213.357 41.9133 212.498 43.4927 211.364 44.382C210.229 45.302 208.374 45.762 205.798 45.762H201.198L200.508 39.828H203.084C204.126 39.828 204.648 39.414 204.648 38.586C204.648 38.402 204.586 38.0033 204.464 37.39L199.174 16.966H207.362L209.432 30.72H209.846L212.1 16.966H219.644Z" fill="white"/>
<path d="M27.9577 5.879C20.2327 5.875 12.1727 7.61501 4.03768 9.872C3.00468 10.08 1.99668 10.756 1.46368 11.592C0.973684 12.38 0.795684 13.171 0.642684 14C-0.147316 18.428 -0.0513159 22.776 0.112684 27.594C0.148684 28.697 0.312684 30.004 0.827684 30.799C1.36568 31.602 2.28768 32.112 3.38868 32.279C4.79529 32.4853 6.2063 32.6604 7.62068 32.804L7.30868 41.502C7.26068 42.194 7.59868 42.769 8.01868 43.1C8.39468 43.386 8.81368 43.513 9.24368 43.545C10.1037 43.61 11.1127 43.242 11.6137 42.288C13.8087 38.064 15.1857 36.199 17.9307 33.393C25.0887 33.569 31.3377 33.171 38.4127 32.648C40.9137 32.583 42.6307 30.538 43.0847 28.905C44.4417 24.673 44.6527 19.449 44.7967 14.168C44.8577 12.075 44.1317 10.02 42.8467 8.934C41.6247 7.943 40.1447 7.584 38.7887 7.216C35.0217 6.363 31.2537 5.905 27.9577 5.879ZM38.2477 9.189C39.6057 9.558 40.8027 9.913 41.5577 10.526C42.8177 11.865 42.7757 12.756 42.7577 14.201C42.6157 19.323 42.3697 24.294 41.2137 28.061C40.7157 29.466 39.8477 30.466 38.2077 30.617C30.9997 31.15 24.7457 31.562 17.5007 31.356C17.3596 31.3515 17.2191 31.376 17.0879 31.4279C16.9566 31.4799 16.8375 31.5582 16.7377 31.658C13.6937 34.732 12.1367 36.868 9.81668 41.334C9.76268 41.436 9.64568 41.498 9.50168 41.509C9.40468 41.504 9.36568 41.429 9.35968 41.361L9.67368 31.929C9.69268 31.42 9.27268 30.934 8.76668 30.879C7.0748 30.7174 5.38753 30.5107 3.70668 30.259C2.98068 30.148 2.71268 29.949 2.51368 29.653C2.16768 28.828 2.17568 28.318 2.14868 27.525C1.98668 22.75 1.90668 18.577 2.63968 14.425C2.70768 13.811 2.93768 13.183 3.18168 12.658C3.58568 12.026 4.20468 11.933 4.82568 11.761C12.7817 9.564 20.5657 7.921 27.8937 7.916C31.4857 8.046 35.2577 8.406 38.2477 9.189V9.189ZM10.7687 17.279C9.67268 18.592 9.78168 20.375 10.6287 21.569C11.0707 22.194 11.7607 22.697 12.6007 22.811C13.6917 22.901 14.3837 22.459 15.1307 21.951C16.4837 20.775 16.6207 18.723 15.5917 17.241C15.0677 16.486 14.2297 16.033 13.3737 16.001C12.2017 16.013 11.4057 16.536 10.7687 17.278V17.279ZM22.6247 16.207C21.5327 16.242 20.6497 16.998 20.1107 17.814C19.4937 18.747 19.1337 19.915 19.6327 21.06C20.5927 23.263 23.9097 23.236 25.2327 20.997C25.8427 19.965 25.6867 18.792 25.2327 17.941C24.7807 17.091 24.0967 16.398 23.1017 16.239C22.9441 16.2131 22.7843 16.2024 22.6247 16.207V16.207ZM32.2497 16.414C31.9097 16.406 31.5597 16.438 31.2317 16.525C29.9197 16.875 28.8027 18.229 28.9717 19.962C29.0577 20.834 29.4587 21.684 30.1817 22.27C30.9047 22.855 31.9547 23.117 33.0617 22.89C34.3337 22.63 35.1217 21.605 35.3847 20.615C35.6477 19.625 35.5817 18.616 34.9707 17.798C34.6528 17.3753 34.2424 17.0308 33.771 16.7909C33.2996 16.5511 32.7796 16.4221 32.2507 16.414H32.2497ZM13.2847 18.037C13.5297 18.039 13.7227 18.117 13.9217 18.403C14.3667 19.045 14.2427 20.018 13.7937 20.408C13.3467 20.798 13.0677 20.832 12.8717 20.806C12.6757 20.779 12.4767 20.644 12.2987 20.392C11.9587 19.912 11.8587 19.136 12.3057 18.582C12.5437 18.266 12.9807 18.069 13.2857 18.037H13.2847ZM22.7677 18.26C22.8057 18.266 23.2317 18.513 23.4357 18.896C23.6397 19.279 23.6777 19.635 23.4837 19.962C22.9067 20.938 21.6797 20.674 21.4937 20.249C21.4237 20.087 21.4767 19.436 21.8137 18.929C22.1487 18.42 22.5707 18.229 22.7677 18.259V18.26ZM33.3317 19.008C33.3937 19.091 33.5447 19.648 33.4277 20.09C33.3097 20.532 33.1177 20.805 32.6477 20.901C32.0457 21.025 31.7077 20.901 31.4547 20.694C31.2007 20.489 31.0297 20.142 30.9927 19.771C30.9027 18.851 31.2327 18.638 31.7567 18.498C32.3667 18.348 33.0567 18.61 33.3317 19.008V19.008Z" fill="white"/>
</svg>
